<svg width="27" height="53" viewBox="0 0 27 53" fill="none" xmlns="http://www.w3.org/2000/svg">
<path d="M26.9918 26.3684C26.9636 26.0987 26.8473 25.847 26.6618 25.6534L2.02377 0.374049C1.80637 0.140044 1.50668 0.00518901 1.19142 0.000144965C0.876173 -0.00489628 0.572388 0.120717 0.348426 0.348C0.124476 0.575283 -0.00121709 0.885743 9.18588e-06 1.20881C0.00123746 1.53229 0.129388 1.8415 0.355383 2.0671L24.1696 26.5L0.35538 50.9329C0.129386 51.1581 0.00123328 51.4677 6.97485e-06 51.7912C-0.00122122 52.1147 0.124473 52.4247 0.348424 52.652C0.572375 52.8797 0.876171 53.0049 1.19142 52.9999C1.50667 52.9948 1.80637 52.8604 2.02377 52.6259L26.6629 27.3466C26.9106 27.0883 27.0317 26.7291 26.9928 26.3686L26.9918 26.3684Z" fill="#797979"/>
</svg>
